<?xml version="1.0" encoding="UTF-8"?>
<svg width="700pt" height="700pt" version="1.1" viewBox="0 0 690 600" xmlns="http://www.w3.org/2000/svg">
 <path fill="#FF9000" d="m601.91 95.094c2.4492-3.1328 2.4688-7.543 0.035157-10.691-2.4141-3.168-6.6328-4.2891-10.344-2.7461-40.023 16.852-70.945-1.4336-103.7-20.809-24.238-14.316-49.281-29.121-78.383-29.121-22.363 0-44.641 9.082-59.5 23.746-14.875-14.664-37.137-23.746-59.5-23.746-29.102 0-54.164 14.805-78.383 29.121-32.812 19.371-63.773 37.66-103.74 20.809-3.6914-1.543-7.9102-0.42188-10.324 2.7461-2.4141 3.168-2.4141 7.5586 0.015626 10.691 1.6797 2.1367 29.312 36.75 79.715 59.027-12.984 21.156-42.016 77.387-42.016 158.08 0 3.8867 2.5547 7.2969 6.2656 8.3828 3.7109 1.0859 7.7188-0.38672 9.8359-3.6406 0.070312-0.085937 3.832-5.7578 9.5547-10.988 0.050782 29.066 5.582 89.391 46.516 132.14 2.5742 2.6953 6.5977 3.4648 9.9922 1.8906 3.3789-1.5742 5.4258-5.1289 5.0234-8.8555 0-0.085937-0.55859-5.793 0.15625-12.934 16.137 25.254 52.781 71.312 122.73 109.02 1.2969 0.69922 2.7109 1.0508 4.1484 1.0508 1.4336 0 2.8516-0.35156 4.1484-1.0508 69.949-37.711 106.59-83.773 122.73-109.02 0.71875 7.1406 0.15625 12.828 0.15625 12.934-0.38672 3.7266 1.6445 7.2812 5.0234 8.8555 3.4141 1.5586 7.4219 0.78906 9.9922-1.8906 40.914-42.734 46.445-103.04 46.516-132.11 4.5664 4.1484 8.0859 8.6992 9.5547 10.973 2.1367 3.2383 6.0898 4.707 9.8359 3.6211 3.7266-1.1016 6.2656-4.5156 6.2656-8.3828 0-80.691-29.031-136.92-42.016-158.08 50.395-22.273 78.027-56.887 79.707-59.023zm-56.055 194.23c-4.0781-3.1133-8.7656-5.8789-13.914-7.6133-2.7812-0.94531-5.8984-0.40234-8.2422 1.4688-2.3086 1.8555-3.5352 4.7617-3.2383 7.6992 0.070312 0.75391 6.2461 67.305-27.352 117.9-1.1562-5.7383-3.0781-11.777-6.2305-17.219-1.6641-2.8516-4.7773-4.6016-8.0508-4.3398-3.2891 0.17578-6.1953 2.1875-7.5234 5.1992-0.31641 0.66406-30.293 66.57-121.33 117.11-91.016-50.559-121.01-116.45-121.33-117.11-1.3125-3.0117-4.2344-5.0234-7.5234-5.1992-3.1133-0.085937-6.3867 1.5039-8.0508 4.3398-3.168 5.4414-5.0742 11.48-6.2305 17.219-33.617-50.594-27.422-117.14-27.352-117.9 0.31641-2.9414-0.92578-5.8438-3.2383-7.6992-2.3281-1.8711-5.4766-2.4336-8.2422-1.4688-5.1445 1.7148-9.8359 4.4961-13.914 7.6133 5.0039-67.043 30.66-113.42 40.234-128.62 20.754 7.2266 44.66 12.039 71.629 12.039 6.6484 0 13.02-0.50781 19.234-1.2422 7.0859 38.781 58.414 65.871 60.742 67.078 1.2617 0.66406 2.6406 0.98047 4.0234 0.98047 1.3828 0 2.7656-0.33203 4.0234-0.98047 2.3438-1.2266 53.656-28.297 60.742-67.078 6.2109 0.73438 12.582 1.2422 19.234 1.2422 26.969 0 50.871-4.8281 71.629-12.039 9.625 15.207 35.277 61.582 40.266 128.62zm-243.14-120.93c19.426-4.8828 35.684-13.754 47.285-26.074 11.602 12.301 27.859 21.191 47.285 26.074-4.2539 22.785-32.113 43.594-47.285 52.414-15.172-8.8203-43.031-29.613-47.285-52.414zm131.3-13.16c-34.598 0-63.281-11.863-76.773-31.746-1.6406-2.3945-4.3359-3.832-7.2422-3.832s-5.6016 1.4336-7.2461 3.832c-13.492 19.879-42.176 31.746-76.773 31.746-62.371 0-107.84-28.805-132.6-49.684 33.516 2.3125 61.918-14.453 87.625-29.645 23.223-13.719 45.168-26.688 69.492-26.688 20.879 0 41.457 9.7109 52.43 24.762 3.3086 4.5156 10.832 4.5156 14.156 0 10.973-15.031 31.551-24.762 52.43-24.762 24.324 0 46.27 12.969 69.492 26.688 25.727 15.207 54.199 31.922 87.727 29.629-24.707 20.895-70.102 49.699-132.72 49.699z"/>
</svg>
