<?xml version="1.0" encoding="UTF-8"?>
<svg width="700pt" height="700pt" version="1.1" viewBox="0 0 600 600" xmlns="http://www.w3.org/2000/svg" xmlns:xlink="http://www.w3.org/1999/xlink">
 <g>
  <path fill="#FF9000" d="m323.75 306.25h-17.5c-9.6523 0-17.5 7.8477-17.5 17.5v52.5c0 9.6523 7.8477 17.5 17.5 17.5h17.5c9.6523 0 17.5-7.8477 17.5-17.5v-52.5c0-9.6523-7.8477-17.5-17.5-17.5zm0 17.5v17.5h-17.5v-17.5zm-17.5 52.5v-17.5h17.5v17.5z"/>
  <path fill="#FF9000" d="m525 463.75c-14.473 0-26.25-11.777-26.25-26.25v-26.25c0-19.301-15.699-35-35-35s-35 15.699-35 35v87.5c0 19.301-15.699 35-35 35s-35-15.699-35-35c9.6523 0 17.5-7.8477 17.5-17.5v-26.477c10.562-7.9961 17.5-20.547 17.5-34.773v-82.094l15.652-7.832c11.938-5.957 19.348-17.961 19.348-31.297v-115.03c0-13.23-3.7539-25.566-10.16-36.129l1.6875-1.2695c16.27-12.195 25.973-31.613 25.973-51.938 0-5.3008-0.65625-10.598-1.9414-15.742l-13.957-55.852c-2.0742-8.2852-9.4844-14.07-18.023-14.07-10.25 0-18.578 8.3398-18.578 18.578v51.422h-17.5v-43.75c0-14.473-11.777-26.25-26.25-26.25s-26.25 11.777-26.25 26.25v43.75h-17.5v-43.75c0-14.473-11.777-26.25-26.25-26.25s-26.25 11.777-26.25 26.25v43.75h-17.5v-51.422c0-10.238-8.3281-18.578-18.578-18.578-8.5391 0-15.953 5.7852-18.023 14.07l-13.957 55.852c-1.2852 5.1445-1.9414 10.438-1.9414 15.742 0 20.328 9.7031 39.742 25.969 51.941l1.6875 1.2695c-3.8594 6.3711-6.7539 13.371-8.4258 20.852-3.2109-1.4219-6.7539-2.2266-10.48-2.2266-14.473 0-26.25 11.777-26.25 26.25v8.75h-17.5c-9.6523 0-17.5 7.8477-17.5 17.5v35c0 9.6523 7.8477 17.5 17.5 17.5h17.5c9.6523 0 17.5-7.8477 17.5-17.5v-61.25c0-4.8203 3.9297-8.75 8.75-8.75s8.75 3.9297 8.75 8.75v106.28c0 13.336 7.4102 25.34 19.348 31.309l15.652 7.8203v20.844h-17.5c-9.6523 0-17.5 7.8477-17.5 17.5v17.5c0 9.6523 7.8477 17.5 17.5 17.5h17.5v8.75c0 24.125 19.625 43.75 43.75 43.75h43.75v17.5c0 9.6523 7.8477 17.5 17.5 17.5 0 28.953 23.547 52.5 52.5 52.5s52.5-23.547 52.5-52.5v-87.5c0-9.6523 7.8477-17.5 17.5-17.5s17.5 7.8477 17.5 17.5v26.25c0 24.125 19.625 43.75 43.75 43.75h26.25v-17.5zm-358.75-210h-17.5v-35h17.5zm192.5 157.5h-87.5c-9.6523 0-17.5-7.8477-17.5-17.5v-259.44c5.4844-1.9531 11.359-3.0625 17.5-3.0625h87.5c6.1406 0 12.016 1.1211 17.5 3.0625v259.44c0 9.6523-7.8477 17.5-17.5 17.5zm52.5-112.47c0 6.668-3.7109 12.672-9.668 15.652l-7.832 3.9141v-173.62c10.711 9.6172 17.5 23.52 17.5 39.023zm-210-204.36c0-3.8672 0.48047-7.7344 1.418-11.496l13.957-55.852c0.26953-1.0625 2.125-0.82422 2.125 0.26172v51.422c0 9.6523 7.8477 17.5 17.5 17.5h17.5c9.6523 0 17.5-7.8477 17.5-17.5v-43.75c0-4.8203 3.9297-8.75 8.75-8.75s8.75 3.9297 8.75 8.75v43.75c0 9.6523 7.8477 17.5 17.5 17.5h17.5c9.6523 0 17.5-7.8477 17.5-17.5v-43.75c0-4.8203 3.9297-8.75 8.75-8.75s8.75 3.9297 8.75 8.75v43.75c0 9.6523 7.8477 17.5 17.5 17.5h17.5c9.6523 0 17.5-7.8477 17.5-17.5v-51.422c0-1.0938 1.8555-1.3281 2.125-0.26172l13.957 55.852c0.9375 3.7578 1.418 7.6289 1.418 11.496 0 14.848-7.0977 29.031-18.969 37.941l-2.0117 1.5156c-12.637-12.43-29.945-20.121-49.02-20.121h-87.5c-19.074 0-36.383 7.6914-49.016 20.109l-2.0117-1.5039c-11.875-8.9102-18.973-23.094-18.973-37.941zm27.168 220.02c-5.957-2.9805-9.668-8.9844-9.668-15.652v-115.03c0-15.496 6.7891-29.398 17.5-39.023v173.61zm-9.668 79.32v-17.5h17.5v17.5zm35.41 30.355c5.0859 2.8672 10.852 4.6445 17.09 4.6445h87.5c6.2383 0 12.004-1.7773 17.09-4.6445-1.9961 12.52-12.766 22.145-25.84 22.145h-70c-13.074 0-23.844-9.625-25.84-22.145zm95.84 39.645c2.9922 0 5.9219-0.30469 8.75-0.88281v18.383h-17.5v-17.5z"/>
  <use x="70" y="700" xlink:href="#m"/>
  <use x="102.109375" y="700" xlink:href="#h"/>
  <use x="123.683594" y="700" xlink:href="#c"/>
  <use x="153.355469" y="700" xlink:href="#b"/>
  <use x="182.878906" y="700" xlink:href="#g"/>
  <use x="203.792969" y="700" xlink:href="#c"/>
  <use x="233.464844" y="700" xlink:href="#f"/>
  <use x="280.011719" y="700" xlink:href="#e"/>
  <use x="311.328125" y="700" xlink:href="#a"/>
  <use x="355.078125" y="700" xlink:href="#d"/>
  <use x="384.964844" y="700" xlink:href="#l"/>
  <use x="416.113281" y="700" xlink:href="#k"/>
  <use x="442.046875" y="700" xlink:href="#b"/>
  <use x="471.570312" y="700" xlink:href="#j"/>
  <use x="486.566406" y="700" xlink:href="#a"/>
  <use x="515.082031" y="700" xlink:href="#i"/>
 </g>
</svg>
