<svg xmlns="http://www.w3.org/2000/svg" xmlns:xlink="http://www.w3.org/1999/xlink" version="1.1" x="0px" y="0px" viewBox="0 0 100 125" style="enable-background:new 0 0 100 100;" xml:space="preserve"><path fill="#FFFFFF" d="M67.9,72.6c-4.4,0-8,3.6-8,8c0,4.4,3.6,8,8,8s8-3.6,8-8C75.9,76.2,72.3,72.6,67.9,72.6z M67.9,85.6c-2.7,0-4.9-2.2-4.9-4.9  c0-2.7,2.2-4.9,4.9-4.9c2.7,0,4.9,2.2,4.9,4.9C72.8,83.4,70.6,85.6,67.9,85.6z"/><path fill="#FFFFFF" d="M29.3,72.6c-4.4,0-8,3.6-8,8c0,4.4,3.6,8,8,8s8-3.6,8-8C37.4,76.2,33.8,72.6,29.3,72.6z M29.3,85.6c-2.7,0-4.9-2.2-4.9-4.9  c0-2.7,2.2-4.9,4.9-4.9s4.9,2.2,4.9,4.9C34.3,83.4,32,85.6,29.3,85.6z"/><path fill="#FF9000" d="M82.1,85.2c0.8-2.6,1-5.5,0.2-8.4c-1.3-5-5.3-9.2-10.3-10.5c-2.9-0.8-5.9-0.7-8.7,0.2l-7.4-11.3L76.2,7.7  c0.3-0.7,0-1.6-0.7-2c-0.7-0.4-1.6-0.2-2,0.5L48.6,44.2L23.8,6.3c-0.4-0.7-1.3-0.9-2-0.5c-0.7,0.4-1,1.2-0.7,2l20.3,47.5L34,66.5  c-1.5-0.5-3.1-0.7-4.6-0.7c-4.6,0-8.8,2-11.7,5.6c-2.8,3.6-3.9,8.2-2.8,12.8c1.2,5.4,5.6,9.8,11,11c1.2,0.3,2.3,0.4,3.5,0.4  c3.4,0,6.6-1.1,9.3-3.2c3.6-2.8,5.6-7.1,5.6-11.7c0-3.7-1.3-7.1-3.7-9.8c1.4-3,3.9-6.3,8.1-8.5c4.3,2.1,6.7,5.6,8.1,8.5  c-2.9,3.3-4.2,7.7-3.5,12.1c1,6.3,6,11.4,12.3,12.4c0.8,0.1,1.6,0.2,2.4,0.2c4.2,0,8.2-1.7,11-4.8c0.8-0.8,1.4-1.7,1.9-2.7  c1,0.5,2.3,1.7,2.1,4c-0.1,0.9,0.6,1.6,1.4,1.7c0,0,0.1,0,0.1,0c0.8,0,1.5-0.6,1.5-1.4C86.3,88.4,84.1,86.2,82.1,85.2z M30.8,22.7  L46.8,47l-3.4,5.1L30.8,22.7z M37.2,70.6c-0.2,0.6-0.1,1.3,0.3,1.7c2.3,2.2,3.5,5.2,3.5,8.4c0,3.6-1.6,7-4.4,9.2  c-2.8,2.2-6.5,3.1-10.1,2.2c-4.2-1-7.7-4.5-8.7-8.7c-0.8-3.6,0-7.3,2.2-10.1c2.3-2.8,5.6-4.4,9.2-4.4c1.6,0,3.2,0.3,4.7,1  c0.7,0.3,1.5,0.1,1.9-0.6l30.5-46.6L51.3,58.1c-1.1,0.3-2.2,0.7-3.2,1.1c-0.1,0-0.1,0.1-0.2,0.1C41.6,62.2,38.6,67.4,37.2,70.6z   M66,92.3c-5-0.8-9-4.8-9.7-9.8c-0.6-3.8,0.7-7.6,3.4-10.2c0.5-0.4,0.6-1.1,0.3-1.7c-1.2-3-3.5-6.8-7.6-9.5c0.1,0,0.2-0.1,0.4-0.1  c0.5-0.1,0.9-0.4,1.1-0.9l0.6-1.3l6.9,10.6c0.4,0.6,1.2,0.9,1.9,0.6c2.5-1.1,5.2-1.2,7.9-0.5c4,1.1,7.2,4.3,8.1,8.3c1,4,0,8-2.7,11  C73.9,91.6,70,92.9,66,92.3z"/><path fill="#FFFFFF" d="M48.4,56.5c0.6,0,1.1-0.5,1.1-1.1s-0.5-1.1-1.1-1.1s-1.1,0.5-1.1,1.1S47.8,56.5,48.4,56.5z"/></svg>
