<svg xmlns="http://www.w3.org/2000/svg" xmlns:xlink="http://www.w3.org/1999/xlink" version="1.1" x="0px" y="0px" viewBox="0 0 64 64" style="enable-background:new 0 0 64 64;" xml:space="preserve"><g><circle cx="22" cy="18" r="1"/><path fill="#FF9000" d="M22,26c0.55,0,1-0.45,1-1v-3c0-0.55-0.45-1-1-1c-0.55,0-1,0.45-1,1v3C21,25.55,21.45,26,22,26z"/><path fill="#FF9000" d="M21,39c0.552,0,1-0.448,1-1s-0.448-1-1-1h-6c-0.552,0-1,0.448-1,1s0.448,1,1,1H21z"/><path fill="#FF9000" d="M15,45c-0.552,0-1,0.448-1,1s0.448,1,1,1h6c0.552,0,1-0.448,1-1s-0.448-1-1-1H15z"/><path fill="#FF9000" d="M24,42c0-0.552-0.448-1-1-1H13c-0.552,0-1,0.448-1,1s0.448,1,1,1h10C23.552,43,24,42.552,24,42z"/><path fill="#FF9000" d="M9,56V36c0-0.55-0.45-1-1-1c-0.55,0-1,0.45-1,1v20c0,0.55,0.45,1,1,1C8.55,57,9,56.55,9,56z"/><circle cx="8" cy="32" r="1"/><path fill="#FF9000" d="M8,29c0.55,0,1-0.45,1-1v-0.01V24c0-1.456,0.35-2.861,1-4.121V24c0,4.411,3.589,8,8,8s8-3.589,8-8l-0.001-4.12   C26.649,21.138,27,22.54,27,24v32c0,0.552,0.448,1,1,1s1-0.448,1-1V24c0-2.832-1.07-5.485-3.002-7.534l-0.001-2.438   c-0.001-3.701-2.854-6.769-6.494-6.984c-0.995-0.06-2.013-0.059-3.01,0C12.852,7.261,10,10.33,10,14.031v2.437   C8.069,18.517,7,21.175,7,24v4C7,28.55,7.45,29,8,29z M14.558,28.907C15.602,28.314,16.771,28,18,28s2.398,0.314,3.442,0.907   C20.466,29.593,19.281,30,18,30S15.534,29.593,14.558,28.907z M12,14.031c0-2.645,2.026-4.836,4.612-4.99   C17.071,9.014,17.534,9,18,9c0.465,0,0.927,0.014,1.385,0.041c2.585,0.154,4.611,2.345,4.612,4.989L24,24   c0,1.286-0.411,2.477-1.102,3.455C21.446,26.514,19.739,26,18,26s-3.446,0.514-4.898,1.455C12.411,26.477,12,25.286,12,24V14.031z"/><path fill="#FF9000" d="M54,41.142V26v-2c0-1.302-0.839-2.402-2-2.816V19c0-0.13-0.027-0.26-0.077-0.382c-0.051-0.122-0.124-0.233-0.216-0.325   l-3-3C48.52,15.105,48.265,15,48,15v-1.184c1.161-0.414,2-1.514,2-2.816c0-1.592-1.196-4-3-4s-3,2.408-3,4   c0,1.302,0.839,2.402,2,2.816V15c-0.265,0-0.52,0.105-0.707,0.293l-3,3c-0.092,0.092-0.165,0.203-0.216,0.325   C42.027,18.74,42,18.87,42,19v2.184c-1.161,0.414-2,1.514-2,2.816v2v15.142c-1.72,0.447-3,2-3,3.858v11c0,0.552,0.448,1,1,1h18   c0.552,0,1-0.448,1-1V45C57,43.142,55.72,41.589,54,41.142z M46.997,9C47.32,9.043,48,10.18,48,11c0,0.551-0.449,1-1,1   s-1-0.449-1-1C46,10.18,46.68,9.043,46.997,9z M42,35h5c0.552,0,1-0.448,1-1s-0.448-1-1-1h-5v-6h10v2h-1c-0.55,0-1,0.45-1,1   c0,0.55,0.45,1,1,1h1v6h-5c-0.552,0-1,0.448-1,1s0.448,1,1,1h5v2H42V35z M44,20h6v1h-6V20z M48.586,18h-3.172l1-1h1.172L48.586,18z    M43,23h8c0.551,0,1,0.449,1,1v1H42v-1C42,23.449,42.449,23,43,23z M55,55H39V45c0-1.103,0.897-2,2-2h12c1.103,0,2,0.897,2,2V55z"/><circle cx="47" cy="30" r="1"/><path fill="#FF9000" d="M47,45c-2.206,0-4,1.794-4,4s1.794,4,4,4s4-1.794,4-4S49.206,45,47,45z M47,51c-1.103,0-2-0.897-2-2s0.897-2,2-2   s2,0.897,2,2S48.103,51,47,51z"/><path fill="#FF9000" d="M28,13c1.654,0,3,1.346,3,3c0,0.552,0.448,1,1,1s1-0.448,1-1c0-1.654,1.346-3,3-3c0.552,0,1-0.448,1-1s-0.448-1-1-1   c-1.654,0-3-1.346-3-3c0-0.552-0.448-1-1-1s-1,0.448-1,1c0,1.654-1.346,3-3,3c-0.552,0-1,0.448-1,1S27.448,13,28,13z M32,10.969   c0.292,0.393,0.638,0.739,1.031,1.031c-0.393,0.292-0.739,0.638-1.031,1.031c-0.292-0.393-0.638-0.739-1.031-1.031   C31.362,11.708,31.708,11.362,32,10.969z"/><path fill="#FF9000" d="M30,25c1.654,0,3,1.346,3,3c0,0.552,0.448,1,1,1s1-0.448,1-1c0-1.654,1.346-3,3-3c0.552,0,1-0.448,1-1s-0.448-1-1-1   c-1.654,0-3-1.346-3-3c0-0.552-0.448-1-1-1s-1,0.448-1,1c0,1.654-1.346,3-3,3c-0.552,0-1,0.448-1,1S29.448,25,30,25z M34,22.969   c0.292,0.393,0.638,0.739,1.031,1.031c-0.393,0.292-0.739,0.638-1.031,1.031c-0.292-0.393-0.638-0.739-1.031-1.031 C33.362,23.708,33.708,23.362,34,22.969z"/></g></svg>
