<svg xmlns="http://www.w3.org/2000/svg" viewBox="0 0 64 64" x="0px" y="0px"><title>Menu</title><g data-name="Menu"><path fill="#FF9000" d="M51,60H43a9,9,0,0,1-9-9V43a9,9,0,0,1,9-9,1,1,0,0,1,0,2,7,7,0,0,0-7,7v8a7,7,0,0,0,7,7h8a7,7,0,0,0,7-7V43a7,7,0,0,0-7-7H50a1,1,0,0,1,0-2h1a9,9,0,0,1,9,9v8A9,9,0,0,1,51,60ZM17,60a12.88,12.88,0,0,1-7.58-2.44,1,1,0,1,1,1.16-1.62A11,11,0,1,0,7,51.58a1,1,0,0,1-1.82.84A13,13,0,1,1,17,60ZM51,30H43a9,9,0,0,1-9-9V13a9,9,0,0,1,9-9h8a8.89,8.89,0,0,1,3.38.66A1,1,0,0,1,54.93,6a1,1,0,0,1-1.31.55A6.87,6.87,0,0,0,51,6H43a7,7,0,0,0-7,7v8a7,7,0,0,0,7,7h8a7,7,0,0,0,7-7V13a6.87,6.87,0,0,0-.51-2.62,1,1,0,1,1,1.86-.75A9,9,0,0,1,60,13v8A9,9,0,0,1,51,30ZM21,30H13a9,9,0,0,1-9-9V13A9.07,9.07,0,0,1,5.2,8.5a1,1,0,0,1,1.74,1A6.93,6.93,0,0,0,6,13v8a7,7,0,0,0,7,7h8a7,7,0,0,0,7-7V13a7,7,0,0,0-7-7H13a6.87,6.87,0,0,0-2.62.51,1,1,0,0,1-.76-1.86A9.07,9.07,0,0,1,13,4h8a9,9,0,0,1,9,9v8A9,9,0,0,1,21,30Z"/></g></svg>
