<svg xmlns="http://www.w3.org/2000/svg" data-name="Layer 1" viewBox="0 0 128 128" x="0px" y="0px"><title>Beauty&amp;amp; cosmetics 2 final</title><path fill="#FF9000" d="M62.95,46.15V44.69a4.16,4.16,0,0,0-.31-1.58,20.47,20.47,0,0,1-3.9.39,20.74,20.74,0,0,1-3.86-.36,4.16,4.16,0,0,0-.31,1.55v1.46a2,2,0,0,0,4,0V44.69c0-.21.38-.21.38,0v1.46a2,2,0,0,0,4,0Z"/><path fill="#FF9000" d="M23.45,78.12a2,2,0,0,0,2-2V69.67h0V66.44h0V59.6a3.66,3.66,0,1,1,7.31,0v9.21a2,2,0,0,0,4,0V48.29a3.66,3.66,0,1,1,7.31,0V60.18a4.76,4.76,0,0,0,9.52,0l.13-16.91a20.44,20.44,0,0,1-4-1.44s0,.09,0,.14L49.6,60.18a.76.76,0,0,1-1.52,0V48.29a7.66,7.66,0,1,0-15.31,0v4.59A7.65,7.65,0,0,0,21.45,59.6v2.12a7.5,7.5,0,0,0-3.34-.78,7.67,7.67,0,0,0-7.66,7.66v4.47A7.65,7.65,0,0,0,.13,80.25a.61.61,0,0,0,0,.13c0,.26,1.72,26.69,3.4,45.85a2,2,0,0,0,2,1.82H5.7a2,2,0,0,0,1.82-2.16C5.89,107.26,4.23,81.73,4.13,80.19a3.66,3.66,0,0,1,3.66-3.6,3.62,3.62,0,0,1,2.66,1.15v7.38a2,2,0,0,0,4,0V68.6a3.65,3.65,0,0,1,7-1.46v9A2,2,0,0,0,23.45,78.12Z"/><path fill="#FF9000" d="M68,59.7c-.12-2.94-.17-17.53-.17-17.67s0,0,0-.05l-2.47.85c-.5.17-1,.32-1.52.45,0,3.64.07,14.05.17,16.58a210.75,210.75,0,0,1-1.34,36.71c-1,8.79-1.84,16.38-.42,29.85a2,2,0,0,0,2,1.79h.21a2,2,0,0,0,1.78-2.2c-1.37-13-.54-20.43.42-29A214.15,214.15,0,0,0,68,59.7Z"/><path fill="#FF9000" d="M117.84,24.8a12.53,12.53,0,0,0,9.85-14.43,12.46,12.46,0,0,0-5.07-8.18A11.86,11.86,0,0,0,113.69.12L87.13,4.64l-28.73.59a16.71,16.71,0,0,0-2.55.26,17.33,17.33,0,0,0-13.74,20,17.32,17.32,0,0,0,8.17,12.1A16.44,16.44,0,0,0,64.08,39L91.35,29.7ZM90.19,25.86l-27.41,9.4a12.45,12.45,0,0,1-10.44-1.09,13.33,13.33,0,0,1-6.28-9.32A13.32,13.32,0,0,1,56.55,9.42a12.73,12.73,0,0,1,1.94-.19l28.88-.59.29,0,26.7-4.54a7.9,7.9,0,0,1,5.94,1.38A8.5,8.5,0,0,1,123.75,11a8.52,8.52,0,0,1-6.64,9.84L90.47,25.79Z"/><path fill="#FF9000" d="M81.3,11l-21.22.41a11.4,11.4,0,0,0-1.66.15A10.77,10.77,0,0,0,49.53,24a10.89,10.89,0,0,0,10.77,8.94,11.1,11.1,0,0,0,3.45-.55l20.14-6.58.48-.08L81.79,10.95ZM62.51,28.59a7.11,7.11,0,0,1-2.21.36,6.86,6.86,0,0,1-6.82-5.63,6.56,6.56,0,0,1,1.12-4.95,6.89,6.89,0,0,1,4.51-2.83,7.37,7.37,0,0,1,1.07-.1l18.28-.36,1.37,7.85Z"/><path fill="#FF9000" d="M98.27,13.32l-8.36,1.5a2,2,0,1,0,.71,3.94l8.24-1.48A6,6,0,0,1,98.27,13.32Z"/><path fill="#FF9000" d="M117.9,11.83a2,2,0,0,0-2.32-1.62l-6.31,1.13a6,6,0,0,1,.82,3.92l6.2-1.11A2,2,0,0,0,117.9,11.83Z"/><circle cx="104.14" cy="14.46" r="2" transform="translate(28.71 87.71) rotate(-52.06)"/><path fill="#FF9000" d="M41,48.7H39.86a2,2,0,0,0,0,4H41a2,2,0,0,0,0-4Z"/><path fill="#FF9000" d="M28.36,59.7a2,2,0,0,0,0,4h1.17a2,2,0,1,0,0-4Z"/><path fill="#FF9000" d="M18.61,68.7h-.83a2,2,0,0,0,0,4h.83a2,2,0,1,0,0-4Z"/><path fill="#FF9000" d="M7.29,79.08l-.8.24a2,2,0,1,0,1.17,3.82l.8-.24a2,2,0,1,0-1.17-3.82Z"/><path fill="#FF9000" d="M25.21,114.67a2,2,0,0,0,2.79-.44c.2-.27,4.91-6.57,11.95-1.56a2,2,0,0,0,2.32-3.26c-8.18-5.82-15-.93-17.5,2.47A2,2,0,0,0,25.21,114.67Z"/></svg>
