<svg xmlns="http://www.w3.org/2000/svg" viewBox="0 0 100 100" x="0px" y="0px"><title>50 icon UI UX</title><path fill="#FF9000" d="M26.753,54.555c-.193-.114-.239-.161-.291-.169-3.965-.64-4.549-2.111-2.354-5.565a47.171,47.171,0,0,1,12.5-13.265,2.275,2.275,0,0,0,1.046-2.275c-.124-3.045-.189-6.107-.009-9.147a3.415,3.415,0,0,1,3.495-3.6,64.023,64.023,0,0,1,8.277-.12c1.873.081,2.443,1.635,2.508,3.212a65,65,0,0,1-.04,7.439c-.173,2.313.214,3.839,2.6,5.063,2.129,1.093,3.858,3.09,5.539,4.9,2.041,2.193,3.872,4.584,5.744,6.928,1.5,1.881,1.687,3.683.284,5.157-.72.757-1.931,1.046-3.184,1.681-.012.141-.082.639-.088,1.138q-.186,14.456-.358,28.912c-.029,2.448-.278,2.89-2.767,2.943-4.878.1-9.762-.083-14.639.025-3.337.074-6.665.48-10,.666-1.724.1-3.458.094-5.184.031-1.529-.056-2.183-.963-2.243-3.109-.114-4.1-.139-8.195-.252-12.292C27.164,66.929,26.95,60.759,26.753,54.555ZM59.314,84.621c.183-9.935.365-19.89.554-30.173H29.453q.594,15.492,1.189,31.031Zm-33.4-33.239c1.141,0,1.8,0,2.465,0q11.493.033,22.984.065c3.572.009,7.144.036,10.715-.02a6.869,6.869,0,0,0,1.876-.593,8.725,8.725,0,0,0-.839-1.785c-1.308-1.682-2.645-3.348-4.064-4.938-3.09-3.461-6.369-6.7-11.055-7.934-3.048-.8-6.089-1.043-8.729,1.111A90.463,90.463,0,0,0,31.322,44.2C29.356,46.228,27.876,48.73,25.913,51.382ZM49.045,32.921c0-2.756.052-5.627-.054-8.493a1.73,1.73,0,0,0-1.169-1.216,49.558,49.558,0,0,0-6.007.112c-.49.038-1.328.63-1.342.993-.11,2.931-.062,5.867-.062,8.6Zm11.729-7.063c3.445-3.455,6.694-7.108,9.952-10.744a3.72,3.72,0,0,0,.906-2.163,1.951,1.951,0,0,0-1.073-1.464,1.723,1.723,0,0,0-1.538.665A42.189,42.189,0,0,1,59.457,23.4a9.8,9.8,0,0,1-3.3,1.713c-.836.286-1.723.474-1.435,1.48.169.589.967,1,1.676,1.674C58.042,27.392,59.71,26.926,60.774,25.858ZM71.138,42.082c-1.587-2.327-3.093-4.721-5.747-6.05-1.491-.745-2.913-1.628-4.405-2.37-.96-.477-2.174-1.595-2.959-.052-.748,1.466.766,1.9,1.727,2.456,3.317,1.908,7.038,3.32,8.66,7.265a1.8,1.8,0,0,0,.89.771,1.467,1.467,0,0,0,2.026-1.495A1.861,1.861,0,0,0,71.138,42.082Zm-1.17-12.659c.954-.195,1.808-.762,1.495-1.916-.336-1.235-1.36-.96-2.285-.779-3.659.72-7.316,1.453-10.984,2.128-.928.171-2.1.16-1.78,1.45.16.642,1.139,1.08,1.556,1.443C62.305,30.915,66.144,30.2,69.968,29.423ZM46.606,28.16c.061-.341-.819-1.222-1.212-1.185a2.111,2.111,0,0,0-1.477,1.177c-.128.342.557.988,1.131,1.9C45.818,29.177,46.505,28.721,46.606,28.16Z"/></svg>
