<?xml version="1.0" encoding="UTF-8"?>
<svg width="700pt" height="700pt" version="1.1" viewBox="0 0 660 600" xmlns="http://www.w3.org/2000/svg" xmlns:xlink="http://www.w3.org/1999/xlink">
 <defs>
  <symbol id="e" overflow="visible">
   <path d="m29.312-1.75c-1.5117 0.78125-3.0898 1.3711-4.7344 1.7656-1.6367 0.40625-3.3398 0.60938-5.1094 0.60938-5.3125 0-9.5273-1.4844-12.641-4.4531-3.1055-2.9688-4.6562-7-4.6562-12.094s1.5508-9.125 4.6562-12.094c3.1133-2.9688 7.3281-4.4531 12.641-4.4531 1.7695 0 3.4727 0.19922 5.1094 0.59375 1.6445 0.39844 3.2227 0.99219 4.7344 1.7812v6.5938c-1.5312-1.0391-3.0391-1.8008-4.5156-2.2812-1.4805-0.48828-3.0391-0.73438-4.6719-0.73438-2.9375 0-5.2461 0.94531-6.9219 2.8281-1.6797 1.875-2.5156 4.4648-2.5156 7.7656 0 3.293 0.83594 5.8828 2.5156 7.7656 1.6758 1.875 3.9844 2.8125 6.9219 2.8125 1.6328 0 3.1914-0.23828 4.6719-0.71875 1.4766-0.48828 2.9844-1.2539 4.5156-2.2969z"/>
  </symbol>
  <symbol id="b" overflow="visible">
   <path d="m21.453-17.406c-0.67969-0.3125-1.3516-0.53906-2.0156-0.6875-0.65625-0.15625-1.3203-0.23438-1.9844-0.23438-1.9688 0-3.4844 0.63281-4.5469 1.8906-1.0547 1.2617-1.5781 3.0703-1.5781 5.4219v11.016h-7.6562v-23.922h7.6562v3.9219c0.97656-1.5625 2.1016-2.7031 3.375-3.4219 1.2812-0.71875 2.8125-1.0781 4.5938-1.0781 0.25 0 0.52344 0.011719 0.82812 0.03125 0.30078 0.023438 0.73438 0.070312 1.2969 0.14062z"/>
  </symbol>
  <symbol id="c" overflow="visible">
   <path d="m27.562-12.031v2.1875h-17.891c0.1875 1.793 0.83203 3.1367 1.9375 4.0312 1.1133 0.89844 2.6719 1.3438 4.6719 1.3438 1.6016 0 3.25-0.23438 4.9375-0.70312 1.6875-0.47656 3.4219-1.2031 5.2031-2.1719v5.8906c-1.8047 0.6875-3.6094 1.2031-5.4219 1.5469-1.8125 0.35156-3.6211 0.53125-5.4219 0.53125-4.3359 0-7.7031-1.0977-10.109-3.2969-2.3984-2.207-3.5938-5.2969-3.5938-9.2656 0-3.9062 1.1758-6.9727 3.5312-9.2031 2.3633-2.2383 5.6094-3.3594 9.7344-3.3594 3.7578 0 6.7695 1.1367 9.0312 3.4062 2.2578 2.2617 3.3906 5.2812 3.3906 9.0625zm-7.8594-2.5312c0-1.457-0.42969-2.6289-1.2812-3.5156-0.84375-0.89453-1.9492-1.3438-3.3125-1.3438-1.4922 0-2.6992 0.41797-3.625 1.25-0.91797 0.83594-1.4922 2.0391-1.7188 3.6094z"/>
  </symbol>
  <symbol id="a" overflow="visible">
   <path d="m14.391-10.766c-1.5938 0-2.793 0.27344-3.5938 0.8125-0.80469 0.54297-1.2031 1.3398-1.2031 2.3906 0 0.96875 0.32031 1.7305 0.96875 2.2812 0.64453 0.54297 1.5469 0.8125 2.7031 0.8125 1.4375 0 2.6445-0.51562 3.625-1.5469 0.98828-1.0312 1.4844-2.3203 1.4844-3.875v-0.875zm11.688-2.8906v13.656h-7.7031v-3.5469c-1.0312 1.4492-2.1875 2.5078-3.4688 3.1719s-2.8398 1-4.6719 1c-2.4805 0-4.4961-0.72266-6.0469-2.1719-1.543-1.4453-2.3125-3.3203-2.3125-5.625 0-2.8125 0.96094-4.8672 2.8906-6.1719 1.9375-1.3125 4.9688-1.9688 9.0938-1.9688h4.5156v-0.60938c0-1.207-0.48047-2.0938-1.4375-2.6562-0.94922-0.5625-2.4375-0.84375-4.4688-0.84375-1.6367 0-3.1562 0.16797-4.5625 0.5-1.4062 0.32422-2.7188 0.8125-3.9375 1.4688v-5.8281c1.6445-0.40625 3.2891-0.70703 4.9375-0.90625 1.6562-0.20703 3.3047-0.3125 4.9531-0.3125 4.3203 0 7.4375 0.85547 9.3438 2.5625 1.9141 1.6992 2.875 4.4609 2.875 8.2812z"/>
  </symbol>
  <symbol id="j" overflow="visible">
   <path d="m12.031-30.719v6.7969h7.875v5.4688h-7.875v10.141c0 1.1172 0.21875 1.8711 0.65625 2.2656 0.4375 0.38672 1.3125 0.57812 2.625 0.57812h3.9375v5.4688h-6.5625c-3.0234 0-5.1641-0.62891-6.4219-1.8906-1.2617-1.2578-1.8906-3.3984-1.8906-6.4219v-10.141h-3.7969v-5.4688h3.7969v-6.7969z"/>
  </symbol>
  <symbol id="i" overflow="visible">
   <path d="m19.953-20.422v-12.812h7.6875v33.234h-7.6875v-3.4531c-1.0547 1.4062-2.2148 2.4375-3.4844 3.0938-1.2734 0.65625-2.7422 0.98438-4.4062 0.98438-2.9492 0-5.3711-1.1719-7.2656-3.5156-1.8867-2.3438-2.8281-5.3594-2.8281-9.0469s0.94141-6.7031 2.8281-9.0469c1.8945-2.3438 4.3164-3.5156 7.2656-3.5156 1.6562 0 3.1172 0.33594 4.3906 1 1.2812 0.65625 2.4453 1.6836 3.5 3.0781zm-5.0469 15.484c1.6445 0 2.8945-0.59766 3.75-1.7969 0.86328-1.1953 1.2969-2.9297 1.2969-5.2031 0-2.2812-0.43359-4.0195-1.2969-5.2188-0.85547-1.1953-2.1055-1.7969-3.75-1.7969-1.625 0-2.8711 0.60156-3.7344 1.7969-0.85547 1.1992-1.2812 2.9375-1.2812 5.2188 0 2.2734 0.42578 4.0078 1.2812 5.2031 0.86328 1.1992 2.1094 1.7969 3.7344 1.7969z"/>
  </symbol>
  <symbol id="h" overflow="visible">
   <path d="m16.406-4.9375c1.6328 0 2.8828-0.59766 3.75-1.7969 0.86328-1.1953 1.2969-2.9297 1.2969-5.2031 0-2.2812-0.43359-4.0195-1.2969-5.2188-0.86719-1.1953-2.1172-1.7969-3.75-1.7969-1.6367 0-2.8906 0.60547-3.7656 1.8125-0.875 1.1992-1.3125 2.9336-1.3125 5.2031 0 2.2617 0.4375 3.9961 1.3125 5.2031 0.875 1.1992 2.1289 1.7969 3.7656 1.7969zm-5.0781-15.484c1.0508-1.3945 2.2188-2.4219 3.5-3.0781 1.2812-0.66406 2.7539-1 4.4219-1 2.9453 0 5.3672 1.1719 7.2656 3.5156 1.8945 2.3438 2.8438 5.3594 2.8438 9.0469s-0.94922 6.7031-2.8438 9.0469c-1.8984 2.3438-4.3203 3.5156-7.2656 3.5156-1.668 0-3.1406-0.33594-4.4219-1s-2.4492-1.6914-3.5-3.0781v3.4531h-7.6562v-33.234h7.6562z"/>
  </symbol>
  <symbol id="g" overflow="visible">
   <path d="m0.53125-23.922h7.6562l6.4219 16.234 5.4688-16.234h7.6562l-10.062 26.188c-1.0117 2.6641-2.1953 4.5234-3.5469 5.5781-1.3438 1.0625-3.1211 1.5938-5.3281 1.5938h-4.4219v-5.0156h2.3906c1.3008 0 2.2422-0.21094 2.8281-0.625 0.59375-0.40625 1.0547-1.1484 1.3906-2.2188l0.20312-0.65625z"/>
  </symbol>
  <symbol id="f" overflow="visible">
   <path d="m4.0156-31.891h9.1875l11.594 21.875v-21.875h7.7969v31.891h-9.1875l-11.594-21.875v21.875h-7.7969z"/>
  </symbol>
  <symbol id="m" overflow="visible">
   <path d="m3.6719-33.234h7.6562v18.094l8.7969-8.7812h8.8906l-11.688 10.969 12.594 12.953h-9.2656l-9.3281-9.9688v9.9688h-7.6562z"/>
  </symbol>
  <symbol id="l" overflow="visible">
   <path d="m15.062-19.031c-1.6992 0-2.9961 0.60938-3.8906 1.8281-0.88672 1.2188-1.3281 2.9766-1.3281 5.2656 0 2.293 0.44141 4.0469 1.3281 5.2656 0.89453 1.2188 2.1914 1.8281 3.8906 1.8281 1.6641 0 2.9375-0.60938 3.8125-1.8281 0.88281-1.2188 1.3281-2.9727 1.3281-5.2656 0-2.2891-0.44531-4.0469-1.3281-5.2656-0.875-1.2188-2.1484-1.8281-3.8125-1.8281zm0-5.4688c4.1133 0 7.3281 1.1094 9.6406 3.3281s3.4688 5.2969 3.4688 9.2344c0 3.9297-1.1562 7.0078-3.4688 9.2344-2.3125 2.2188-5.5273 3.3281-9.6406 3.3281-4.1367 0-7.3711-1.1094-9.7031-3.3281-2.3242-2.2266-3.4844-5.3047-3.4844-9.2344 0-3.9375 1.1602-7.0156 3.4844-9.2344 2.332-2.2188 5.5664-3.3281 9.7031-3.3281z"/>
  </symbol>
  <symbol id="d" overflow="visible">
   <path d="m27.734-14.562v14.562h-7.7031v-11.156c0-2.0625-0.046875-3.4844-0.14062-4.2656-0.085937-0.78125-0.24219-1.3594-0.46875-1.7344-0.30469-0.5-0.71094-0.88281-1.2188-1.1562-0.51172-0.28125-1.0938-0.42188-1.75-0.42188-1.5938 0-2.8516 0.61719-3.7656 1.8438-0.90625 1.2305-1.3594 2.9375-1.3594 5.125v11.766h-7.6562v-23.922h7.6562v3.5c1.1445-1.3945 2.3633-2.4219 3.6562-3.0781 1.3008-0.66406 2.7383-1 4.3125-1 2.7578 0 4.8516 0.85156 6.2812 2.5469 1.4375 1.6875 2.1562 4.1523 2.1562 7.3906z"/>
  </symbol>
  <symbol id="k" overflow="visible">
   <path d="m27.734-14.562v14.562h-7.7031v-11.109c0-2.0938-0.046875-3.5312-0.14062-4.3125-0.085937-0.78125-0.24219-1.3594-0.46875-1.7344-0.30469-0.5-0.71094-0.88281-1.2188-1.1562-0.51172-0.28125-1.0938-0.42188-1.75-0.42188-1.5938 0-2.8516 0.61719-3.7656 1.8438-0.90625 1.2305-1.3594 2.9375-1.3594 5.125v11.766h-7.6562v-33.234h7.6562v12.812c1.1445-1.3945 2.3633-2.4219 3.6562-3.0781 1.3008-0.66406 2.7383-1 4.3125-1 2.7578 0 4.8516 0.85156 6.2812 2.5469 1.4375 1.6875 2.1562 4.1523 2.1562 7.3906z"/>
  </symbol>
 </defs>
 <g>
  <path fill="#FF9000" d="m502 91.926 18.105-46.121c3.2812-8.3828 2.2148-17.816-2.8516-25.242-5.043-7.3945-13.406-11.812-22.359-11.812h-264.32c-20.816 0-40.574 10.027-52.859 26.82l-48.656 66.48c-12.031 16.441-10.895 39.375 2.7031 54.531l11.41 12.723-34.281 112.04c-6.4766 21.176 3.9805 43.75 24.316 52.5l23.676 10.176-0.38672 50.129c-0.18359 22.984 13.09 44.293 33.809 54.266l22.094 10.641c-24.535 10.07-41.457 32.391-44.273 58.992l-2.4492 23.539c-0.26172 2.457 0.54297 4.918 2.1953 6.7656 1.6641 1.8359 4.0234 2.8867 6.5 2.8867h351.31c2.4844 0 4.8555-1.0586 6.5117-2.9062 1.6523-1.8477 2.4492-4.3125 2.1875-6.7812l-2.5391-23.52c-2.9062-27.371-20.684-50.34-46.402-59.945l-74.559-27.973v-33.531c29.426-14.48 53.367-39.254 66.527-70.43 0.72656 0.035156 1.4258 0.21875 2.1523 0.21875 29.68 0 53.812-24.141 53.812-53.805 0-15.723-6.8164-30.414-18.453-40.531l15.469-38.457c14.781-36.711 2.8047-78.293-28.391-101.66zm0.80469-61.504c1.8281 2.6875 2.1953 5.9688 1.0078 8.9961l-19.75 50.297-40.566 31.387h-84.75v-94.852h136.15c3.2109 0 6.1016 1.5234 7.9102 4.1719zm-328.8 363.87 0.42969-55.949c0.027344-3.5156-2.0547-6.7188-5.2852-8.1094l-29.008-12.477c-12.137-5.2148-18.375-18.672-14.508-31.297l35.719-116.76c0.90234-2.9297 0.19141-6.1172-1.8477-8.3984l-14.707-16.406c-8.1094-9.0391-8.7852-22.715-1.6172-32.516l48.66-66.484c8.9922-12.293 23.473-19.645 38.73-19.645h110.67v94.852h-87.676c-3.7539 0-7.0859 2.3789-8.2852 5.9414l-31.289 92.137c-26.609 3.1953-47.32 25.898-47.32 53.391 0 21.996 13.266 41.328 33.004 49.516l-3.3594 26.66c-3.4023 27.012 14.086 51.746 40.688 57.539l16.23 3.5273 11.953 18.777c1.8906 2.9648 4.1055 5.6094 6.4648 8.0859l-36.766 13.789-36.996-17.805c-14.637-7.0508-24.02-22.109-23.887-38.367zm105.96 24.895-13.914-21.848c-1.2617-1.9688-3.2383-3.3594-5.5195-3.8516l-19.801-4.3047c-17.684-3.8398-29.32-20.281-27.055-38.246l13.188-104.55 46.84 46.918c2.7305 2.7383 6.9141 3.3594 10.309 1.5469 10.438-5.5547 38.078-18.672 57.234-22.305v27.371c-10.965 1.3828-20.203 5.293-25.141 10.945-3.1758 3.6406-2.793 9.1719 0.84766 12.348 1.6523 1.4453 3.7109 2.1523 5.75 2.1523 2.4336 0 4.8633-1.0156 6.5977-3 1.3281-1.5312 5.4766-3.6914 11.945-4.8047v112.26l-22.164 5.2422c-15.125 3.5781-30.793-2.8242-39.117-15.879zm-77.961-115.48c-10.797-6.3516-17.824-18.016-17.824-31.141 0-16.484 11.086-30.285 26.129-34.703zm139.24-48.895c-20.754 3.1602-47.879 15.777-59.648 21.613l-51.152-51.25 29.41-86.59h81.391zm-155.71 265.07c2.2031-20.73 15.672-38.125 35.148-45.395l68.312-25.609c6.8086 3 14.176 4.6719 21.734 4.6719 4.1133 0 8.2617-0.47266 12.383-1.4336l18.137-4.293v85.926h-157.16zm213.54-75.504 80.254 30.102c19.469 7.2695 32.934 24.668 35.141 45.414l1.4961 13.855h-157.21v-123.28c11.934-0.76172 23.562-3.0547 34.648-6.7383v32.453c0 3.6484 2.2695 6.9141 5.6719 8.1914zm-40.32-51.406v-76.73c10.965-1.3828 20.211-5.2852 25.156-10.938 3.1758-3.6406 2.8086-9.1719-0.83203-12.348-3.6484-3.1836-9.1719-2.8008-12.348 0.83203-1.3398 1.5391-5.5039 3.7031-11.98 4.8125l0.003906-160h81.488l30.59 90.344v43.531c0 14.105-2.4414 28.035-7.2539 41.371-16.316 44.77-57.766 75.684-104.82 79.125zm124.83-84.5c3.1484-11.75 4.75-23.809 4.75-35.996v-35.078c3.9727 0.98047 7.7695 2.5547 11.207 4.8555 10.238 6.7305 16.355 18.059 16.355 30.32 0.007813 18.645-14.191 33.879-32.312 35.898zm30.598-121.43-14.387 35.762c-4.4023-1.793-9.0039-3.0273-13.773-3.5977l-29.215-86.266 34.809-26.934c24.816 18.668 34.328 51.785 22.566 81.035zm-218.68 53.656v11.141c0 4.8398-3.9102 8.75-8.75 8.75s-8.75-3.9102-8.75-8.75v-11.141c0-4.8398 3.9102-8.75 8.75-8.75s8.75 3.9102 8.75 8.75zm126.52 0v11.141c0 4.8398-3.9102 8.75-8.75 8.75-4.8398 0-8.75-3.9102-8.75-8.75v-11.141c0-4.8398 3.9102-8.75 8.75-8.75 4.8398 0 8.75 3.9102 8.75 8.75zm-164.56-35.34c5.2344-8.8008 16.449-14.27 29.285-14.27 12.844 0 24.062 5.4688 29.297 14.27 2.4688 4.1562 1.1016 9.5195-3.0547 11.988-1.3984 0.83984-2.9414 1.2344-4.4609 1.2344-2.9844 0-5.8984-1.5312-7.5234-4.2773-1.6875-2.8359-7.1211-5.7031-14.254-5.7031s-12.555 2.8711-14.246 5.7031c-2.457 4.1562-7.8398 5.5312-11.988 3.0547-4.1562-2.4805-5.5234-7.8516-3.0547-12zm185.11 0c2.4688 4.1562 1.1016 9.5195-3.0547 11.988-1.3984 0.83984-2.9414 1.2344-4.4609 1.2344-2.9844 0-5.8984-1.5312-7.5234-4.2773-1.6875-2.8359-7.1211-5.7031-14.254-5.7031-7.1328 0-12.555 2.8711-14.246 5.7031-2.4688 4.1562-7.8398 5.5312-11.988 3.0547-4.1562-2.4688-5.5195-7.8398-3.0547-11.988 5.2344-8.8008 16.449-14.27 29.285-14.27 12.848-0.015625 24.062 5.4531 29.297 14.258zm46.812 207.93v-15.953h-5.0938c-4.8398 0-8.75-3.9102-8.75-8.75s3.9102-8.75 8.75-8.75h5.0938v-15.941c0-4.8398 3.9102-8.75 8.75-8.75s8.75 3.9102 8.75 8.75v15.941h5.0938c4.8398 0 8.75 3.9102 8.75 8.75s-3.9102 8.75-8.75 8.75h-5.0938v15.953c0 4.8398-3.9102 8.75-8.75 8.75s-8.75-3.9102-8.75-8.75zm69.16-183.77v-15.953h-5.0938c-4.8398 0-8.75-3.9102-8.75-8.75s3.9102-8.75 8.75-8.75h5.0938v-15.941c0-4.8398 3.9102-8.75 8.75-8.75 4.8398 0 8.75 3.9102 8.75 8.75v15.941h5.0938c4.8398 0 8.75 3.9102 8.75 8.75s-3.9102 8.75-8.75 8.75h-5.0938v15.953c0 4.8398-3.9102 8.75-8.75 8.75-4.8398 0-8.75-3.9141-8.75-8.75z"/>
 </g>
</svg>
